<svg id="Ebene_1" data-name="Ebene 1" xmlns="http://www.w3.org/2000/svg" viewBox="0 0 123.66 17.01"><defs><style>.cls-1{fill-rule:evenodd;}.cls-2{fill:#376EB4;}</style></defs><title>geberit-logo</title><path class="cls-1" d="M37.12,16.26a22.4,22.4,0,0,1-6.37.75c-4.36,0-9.47-2.18-9.47-8.38S25.64,0,31.67,0a14.65,14.65,0,0,1,5,.75v3.6a10.4,10.4,0,0,0-4.36-1.09c-3.6,0-6.54,1.51-6.54,5.36,0,3.19,2.35,5.2,5.53,5.2a4.46,4.46,0,0,0,1.59-.34V10.22h-2.6V7.12h6.79v9.13" transform="translate(0 0)"/><polyline class="cls-1" points="40.89 0.25 52.45 0.25 52.45 3.44 45.24 3.44 45.24 6.79 52.03 6.79 52.03 9.89 45.24 9.89 45.24 13.66 52.7 13.66 52.7 16.76 40.89 16.76 40.89 0.25"/><path class="cls-1" d="M60.41,9.8h1.34C63.26,9.8,65,10,65,11.73s-1.68,1.93-3.27,1.93H60.41V9.8m-4.36,7h7c2.93,0,6.37-.84,6.37-4.78,0-2-1.09-3.18-3.35-3.6V8.3A3.73,3.73,0,0,0,69,4.44C69,1.68,66.69.25,63.59.25H56.05ZM60.41,3.44h1.26c1.51,0,2.93.08,2.93,1.59s-1.51,1.76-2.93,1.76H60.41Z" transform="translate(0 0)"/><polyline class="cls-1" points="72.56 0.25 84.2 0.25 84.2 3.44 77 3.44 77 6.79 83.78 6.79 83.78 9.89 77 9.89 77 13.66 84.45 13.66 84.45 16.76 72.56 16.76 72.56 0.25"/><path class="cls-1" d="M92.16,3.44h1.09c1.68,0,3.27.25,3.27,1.76,0,1.93-1.84,1.93-3.27,1.93H92.16V3.44M87.72,16.76h4.44V10.22h.92c1.59,0,2.18.75,3,3.6l1,2.93h4.53L100,12.32c-.84-2-.92-3.27-2.35-3.69a3.87,3.87,0,0,0,3.18-4.19c0-2.85-2.35-4.19-5.28-4.19H87.72Z" transform="translate(0 0)"/><rect x="104.39" y="0.25" width="4.44" height="16.5"/><polyline class="cls-1" points="115.28 3.52 111.18 3.52 111.18 0.25 123.66 0.25 123.66 3.52 119.64 3.52 119.64 16.76 115.28 16.76 115.28 3.52"/><rect class="cls-2" y="0.25" width="16.51" height="16.5"/></svg>